<?xml version="1.0" encoding="UTF-8" standalone="no"?>
<svg
   xmlns:dc="http://purl.org/dc/elements/1.1/"
   xmlns:cc="http://creativecommons.org/ns#"
   xmlns:rdf="http://www.w3.org/1999/02/22-rdf-syntax-ns#"
   xmlns:svg="http://www.w3.org/2000/svg"
   xmlns="http://www.w3.org/2000/svg"
   xmlns:sodipodi="http://sodipodi.sourceforge.net/DTD/sodipodi-0.dtd"
   xmlns:inkscape="http://www.inkscape.org/namespaces/inkscape"
   width="19"
   height="17"
   viewBox="0 0 19 17"
   fill="none"
   version="1.1"
   id="svg4"
   sodipodi:docname="heart-white.svg"
   inkscape:version="0.92.5 (2060ec1f9f, 2020-04-08)">
  <metadata
     id="metadata10">
    <rdf:RDF>
      <cc:Work
         rdf:about="">
        <dc:format>image/svg+xml</dc:format>
        <dc:type
           rdf:resource="http://purl.org/dc/dcmitype/StillImage" />
        <dc:title></dc:title>
      </cc:Work>
    </rdf:RDF>
  </metadata>
  <defs
     id="defs8" />
  <sodipodi:namedview
     pagecolor="#ffffff"
     bordercolor="#666666"
     borderopacity="1"
     objecttolerance="10"
     gridtolerance="10"
     guidetolerance="10"
     inkscape:pageopacity="0"
     inkscape:pageshadow="2"
     inkscape:window-width="746"
     inkscape:window-height="480"
     id="namedview6"
     showgrid="false"
     inkscape:zoom="13.882353"
     inkscape:cx="9.6440678"
     inkscape:cy="8.1398305"
     inkscape:window-x="0"
     inkscape:window-y="0"
     inkscape:window-maximized="0"
     inkscape:current-layer="svg4" />
  <path
     d="M9.12271 2.41112L9.50168 2.82455L9.91511 2.44558C11.052 1.30866 12.6713 0.791879 14.2216 1.0675C16.5988 1.44647 18.3559 3.51359 18.3559 5.92523V6.09749C18.3559 7.54448 17.7357 8.92256 16.7022 9.88721L10.4663 15.7096C10.2252 15.9508 9.88065 16.0541 9.53613 16.0541C9.15716 16.0541 8.81264 15.9508 8.57148 15.7096L2.33566 9.88721C1.3021 8.92256 0.716415 7.54448 0.716415 6.09749V5.92523C0.716415 3.51359 2.43902 1.44647 4.81621 1.0675C6.36655 0.791879 7.98579 1.30866 9.12271 2.41112C9.12271 2.44558 9.08826 2.41112 9.12271 2.41112ZM9.50168 5.16729L7.95134 3.58249C7.1934 2.859 6.12538 2.51448 5.09182 2.68674C3.50703 2.96236 2.37011 4.30599 2.37011 5.92523V6.09749C2.37011 7.0966 2.74908 8.0268 3.47258 8.68139L9.53613 14.3315L15.5652 8.68139C16.2887 8.0268 16.7022 7.0966 16.7022 6.09749V5.92523C16.7022 4.30599 15.5308 2.96236 13.946 2.68674C12.9124 2.51448 11.8444 2.859 11.0865 3.58249L9.50168 5.16729Z"
     fill="#141414"
     id="path2"
     style="fill:#ffffff" />
</svg>
