<svg width="13" height="19" viewBox="0 0 13 19" fill="none" xmlns="http://www.w3.org/2000/svg">
<path d="M3.70868 16.1928C3.70868 16.3995 3.74313 16.6062 3.88094 16.7785L4.46663 17.6743C4.63889 17.9499 5.05231 18.1566 5.39683 18.1566H7.4984C7.84292 18.1566 8.25635 17.9499 8.42861 17.6743L9.01429 16.7785C9.11765 16.6407 9.18655 16.3651 9.18655 16.1928L9.22101 14.8492H3.70868V16.1928ZM6.46484 0.517155C2.95074 0.551607 0.401288 3.37667 0.401288 6.58071C0.401288 8.0966 0.95252 9.47468 1.88272 10.5427C2.46841 11.1973 3.32971 12.5754 3.67423 13.7123C3.67423 13.7123 3.67423 13.7123 3.67423 13.7467H9.22101C9.22101 13.7123 9.22101 13.7123 9.22101 13.7123C9.56553 12.5754 10.4268 11.1973 11.0125 10.5427C11.9427 9.50913 12.5284 8.13105 12.5284 6.58071C12.5284 3.23886 9.80669 0.551607 6.46484 0.517155ZM9.77224 9.50913C9.22101 10.0948 8.56642 11.0939 8.08409 12.093H4.81115C4.32882 11.0939 3.67423 10.0948 3.123 9.50913C2.43396 8.68228 2.05499 7.64872 2.05499 6.58071C2.05499 4.44469 3.70868 2.2053 6.43039 2.17085C8.87649 2.17085 10.8747 4.16907 10.8747 6.58071C10.8747 7.64872 10.4613 8.68228 9.77224 9.50913ZM5.91361 3.27332C4.36327 3.27332 3.15745 4.51359 3.15745 6.02948C3.15745 6.33955 3.39861 6.58071 3.70868 6.58071C3.9843 6.58071 4.25991 6.33955 4.25991 6.02948C4.25991 5.13373 4.98341 4.37578 5.91361 4.37578C6.18923 4.37578 6.46484 4.13462 6.46484 3.859C6.46484 3.54893 6.18923 3.27332 5.91361 3.27332Z" fill="#141414"/>
</svg>
