<svg width="21" height="21" viewBox="0 0 21 21" fill="none" xmlns="http://www.w3.org/2000/svg">
<path d="M16.9453 9.13281L7.84375 18.2344L6.51562 16.9062L6.67188 16.75H4.875C4.52344 16.75 4.25 16.4766 4.25 16.125V14.3281L4.09375 14.4844C3.89844 14.6797 3.78125 14.875 3.70312 15.1484L2.80469 18.1953L5.85156 17.2969C6.08594 17.2188 6.32031 17.1016 6.51562 16.9062L7.84375 18.2344C7.45312 18.625 6.94531 18.9375 6.39844 19.0938L1.67188 20.4609C1.35938 20.5781 1.00781 20.5 0.773438 20.2266C0.5 19.9922 0.421875 19.6406 0.5 19.3281L1.90625 14.6016C2.0625 14.0547 2.375 13.5469 2.76562 13.1562L11.8672 4.05469L16.9453 9.13281ZM19.7188 2.80469C20.6953 3.78125 20.6953 5.38281 19.7188 6.35938L17.8438 8.23438L12.7656 3.15625L14.6406 1.28125C15.6172 0.304688 17.2188 0.304688 18.1953 1.28125L19.7188 2.80469Z" fill="black"/>
</svg>
