<svg width="19" height="17" viewBox="0 0 19 17" fill="none" xmlns="http://www.w3.org/2000/svg">
<path d="M4.9837 9.43934V1.75654C4.9837 1.1364 4.46692 0.654071 3.88123 0.654071H1.6763C1.05617 0.654071 0.573837 1.17085 0.573837 1.75654V9.43934C0.573837 10.025 1.05617 10.5073 1.6763 10.5073H3.88123C4.46692 10.5418 4.9837 10.0595 4.9837 9.43934ZM17.1453 7.44112C17.1797 7.26886 17.2142 7.06215 17.2142 6.88989C17.2142 6.09749 16.8007 5.40845 16.2151 4.99503C16.2151 4.89167 16.2151 4.78831 16.2151 4.68496C16.2151 3.89256 15.8361 3.20352 15.2159 2.7901C15.147 1.58428 14.1479 0.654071 12.9421 0.654071H11.1162C9.87588 0.654071 8.67006 1.03304 7.67095 1.79099L6.39623 2.72119C6.18952 2.89345 6.08616 3.13462 6.08616 3.41023C6.08616 3.82366 6.43068 4.23708 6.91301 4.23708C7.08527 4.23708 7.25753 4.16818 7.39534 4.06482L8.67006 3.10016C9.3591 2.58338 10.2204 2.27332 11.1162 2.27332H12.9421C13.2866 2.27332 13.5967 2.58338 13.5967 2.9279C13.5967 3.06571 13.5278 3.10016 13.5278 3.27242C13.5278 4.20263 14.5614 3.89256 14.5614 4.68496C14.5614 4.99503 14.3546 5.02948 14.3546 5.4429C14.3546 5.92523 14.7336 6.20085 15.0092 6.2353C15.3193 6.3042 15.5605 6.57982 15.5605 6.88989C15.5605 7.33776 15.147 7.33776 15.147 7.889C15.147 8.30242 15.4916 8.68139 15.9394 8.71584C16.284 8.71584 16.5596 9.02591 16.5596 9.33598C16.5596 9.6805 16.2495 9.99057 15.905 9.99057H11.1506C10.7027 9.99057 10.3238 10.3351 10.3238 10.783C10.3238 10.9208 10.3582 11.0586 10.4271 11.1619C11.0473 12.3333 11.3229 13.4358 11.3229 13.7114C11.3229 13.987 11.1162 14.4004 10.5305 14.4004C10.117 14.4004 10.0481 14.4004 9.70362 13.4358C8.84232 11.2997 7.5676 10.025 6.91301 10.025C6.43068 10.025 6.08616 10.404 6.08616 10.8519C6.08616 11.093 6.18952 11.3342 6.39623 11.472C8.77342 13.3669 7.84321 16.0541 10.5305 16.0541C12.0464 16.0541 12.9766 14.8483 12.9766 13.7114C12.9766 13.2635 12.7699 12.4711 12.4598 11.6443H15.905C17.1453 11.6443 18.2133 10.6107 18.2133 9.33598C18.2133 8.54358 17.7654 7.82009 17.1453 7.44112Z" fill="#141414"/>
</svg>
