<svg width="17" height="15" viewBox="0 0 17 15" fill="none" xmlns="http://www.w3.org/2000/svg">
<path d="M3.75 5.33325H1.75C1.1875 5.33325 0.75 5.77075 0.75 6.302V13.2708C0.75 13.802 1.1875 14.2395 1.75 14.2395H3.75C4.28125 14.2395 4.75 13.802 4.75 13.2708V6.33325C4.75 5.802 4.28125 5.33325 3.75 5.33325ZM16.75 6.427C16.75 5.302 15.7812 4.3645 14.6562 4.3645H11.5312C11.8125 3.58325 12 2.89575 12 2.4895C12 1.427 11.1562 0.364502 9.78125 0.364502C8.34375 0.364502 7.9375 1.3645 7.625 2.177C6.625 4.70825 5.75 4.2395 5.75 5.08325C5.75 5.4895 6.0625 5.83325 6.5 5.83325C6.65625 5.83325 6.8125 5.802 6.9375 5.677C9.34375 3.77075 8.75 1.8645 9.78125 1.8645C10.3125 1.8645 10.5 2.2395 10.5 2.4895C10.5 2.7395 10.25 3.7395 9.6875 4.7395C9.625 4.8645 9.59375 4.9895 9.59375 5.1145C9.59375 5.552 9.9375 5.83325 10.3438 5.83325H14.625C14.9688 5.8645 15.25 6.1145 15.25 6.427C15.25 6.7395 15 7.02075 14.6875 7.02075C14.2812 7.052 13.9688 7.39575 13.9688 7.77075C13.9688 8.27075 14.3438 8.27075 14.3438 8.677C14.3438 9.45825 13.25 9.052 13.25 9.9895C13.25 10.3333 13.4375 10.3958 13.4375 10.677C13.4375 11.3958 12.5 11.1145 12.5 11.9583C12.5 12.1145 12.5625 12.1458 12.5625 12.2708C12.5625 12.5833 12.2812 12.8645 11.9688 12.8645H10.3125C9.5 12.8645 8.71875 12.5833 8.09375 12.1145L6.9375 11.2395C6.8125 11.1458 6.65625 11.0833 6.5 11.0833C6.0625 11.0833 5.71875 11.4583 5.71875 11.8333C5.71875 12.0833 5.84375 12.302 6.03125 12.4583L7.1875 13.302C8.09375 13.9895 9.1875 14.3333 10.3125 14.3333H11.9688C13.0625 14.3333 13.9688 13.4895 14.0312 12.3958C14.5938 12.0208 14.9375 11.3958 14.9375 10.677C14.9375 10.5833 14.9375 10.4895 14.9375 10.3958C15.4688 10.0208 15.8438 9.39575 15.8438 8.677C15.8438 8.52075 15.8125 8.3645 15.7812 8.177C16.3438 7.802 16.75 7.177 16.75 6.427Z" fill="white"/>
</svg>
