<svg width="19" height="17" viewBox="0 0 19 17" fill="none" xmlns="http://www.w3.org/2000/svg">
<path d="M4.0951 6.13194H1.89017C1.27003 6.13194 0.787704 6.61427 0.787704 7.19996V14.8828C0.787704 15.4684 1.27003 15.9508 1.89017 15.9508H4.0951C4.68078 15.9508 5.19756 15.4684 5.19756 14.8828V7.23441C5.19756 6.64872 4.68078 6.13194 4.0951 6.13194ZM18.4271 7.33776C18.4271 6.09749 17.3591 5.06393 16.1189 5.06393H12.6737C12.9837 4.20263 13.1904 3.44469 13.1904 2.99681C13.1904 1.82544 12.2602 0.654071 10.7443 0.654071C9.15955 0.654071 8.71167 1.75654 8.36715 2.65229C7.26468 5.4429 6.30003 4.92612 6.30003 5.85633C6.30003 6.3042 6.64455 6.68318 7.12688 6.68318C7.29914 6.68318 7.4714 6.64872 7.6092 6.51091C10.262 4.40934 9.60742 2.30777 10.7443 2.30777C11.33 2.30777 11.5367 2.72119 11.5367 2.99681C11.5367 3.27242 11.2611 4.37489 10.641 5.47735C10.5721 5.61516 10.5376 5.75297 10.5376 5.89078C10.5376 6.37311 10.9166 6.68318 11.3645 6.68318H16.0844C16.4634 6.71763 16.7734 6.99324 16.7734 7.33776C16.7734 7.68228 16.4978 7.99235 16.1533 7.99235C15.7054 8.0268 15.3609 8.40578 15.3609 8.8192C15.3609 9.37043 15.7743 9.37043 15.7743 9.81831C15.7743 10.6796 14.5685 10.2317 14.5685 11.2653C14.5685 11.6443 14.7752 11.7132 14.7752 12.0232C14.7752 12.8156 13.7417 12.5056 13.7417 13.4358C13.7417 13.608 13.8106 13.6425 13.8106 13.7803C13.8106 14.1248 13.5005 14.4349 13.156 14.4349H11.33C10.4343 14.4349 9.57297 14.1248 8.88393 13.608L7.6092 12.6434C7.4714 12.54 7.29914 12.4711 7.12688 12.4711C6.64455 12.4711 6.26558 12.8845 6.26558 13.298C6.26558 13.5736 6.40338 13.8147 6.6101 13.987L7.88482 14.9172C8.88393 15.6752 10.0898 16.0541 11.33 16.0541H13.156C14.3618 16.0541 15.3609 15.1239 15.4298 13.9181C16.0499 13.5047 16.4289 12.8156 16.4289 12.0232C16.4289 11.9199 16.4289 11.8165 16.4289 11.7132C17.0146 11.2997 17.428 10.6107 17.428 9.81831C17.428 9.64605 17.3936 9.47379 17.3591 9.26708C17.9793 8.85365 18.4271 8.16461 18.4271 7.33776Z" fill="#141414"/>
</svg>
