<?xml version="1.0" encoding="UTF-8" standalone="no"?>
<!-- Uploaded to: SVG Repo, www.svgrepo.com, Generator: SVG Repo Mixer Tools -->

<svg
   xmlns:dc="http://purl.org/dc/elements/1.1/"
   xmlns:cc="http://creativecommons.org/ns#"
   xmlns:rdf="http://www.w3.org/1999/02/22-rdf-syntax-ns#"
   xmlns:svg="http://www.w3.org/2000/svg"
   xmlns="http://www.w3.org/2000/svg"
   xmlns:sodipodi="http://sodipodi.sourceforge.net/DTD/sodipodi-0.dtd"
   xmlns:inkscape="http://www.inkscape.org/namespaces/inkscape"
   width="532.61487"
   height="532.44171"
   viewBox="0 -8 47.935338 47.919754"
   id="Layer_1"
   data-name="Layer 1"
   version="1.1"
   sodipodi:docname="times-svgrepo-com.svg"
   style="fill:#000000"
   inkscape:version="0.92.5 (2060ec1f9f, 2020-04-08)">
  <metadata
     id="metadata11">
    <rdf:RDF>
      <cc:Work
         rdf:about="">
        <dc:format>image/svg+xml</dc:format>
        <dc:type
           rdf:resource="http://purl.org/dc/dcmitype/StillImage" />
        <dc:title>times</dc:title>
      </cc:Work>
    </rdf:RDF>
  </metadata>
  <defs
     id="defs9" />
  <sodipodi:namedview
     pagecolor="#ffffff"
     bordercolor="#666666"
     borderopacity="1"
     objecttolerance="10"
     gridtolerance="10"
     guidetolerance="10"
     inkscape:pageopacity="0"
     inkscape:pageshadow="2"
     inkscape:window-width="746"
     inkscape:window-height="480"
     id="namedview7"
     showgrid="false"
     fit-margin-top="0"
     fit-margin-left="0"
     fit-margin-right="0"
     fit-margin-bottom="0"
     inkscape:zoom="0.295"
     inkscape:cx="266.31218"
     inkscape:cy="266.22087"
     inkscape:window-x="0"
     inkscape:window-y="0"
     inkscape:window-maximized="0"
     inkscape:current-layer="Layer_1" />
  <title
     id="title2">times</title>
  <path
     d="m 31.708096,15.959878 15.26,-15.24999982 a 3.29,3.29 0 0 0 0,-4.65999998 l -3.1,-3.09 a 3.32,3.32 0 0 0 -4.67,0 l -15.23,15.26 -15.2299997,-15.19 a 3.32,3.32 0 0 0 -4.67,0 l -3.10000003,3.11 a 3.3,3.3 0 0 0 0,4.66999998 L 16.148096,15.959878 l -15.17999973,15.21 a 3.31,3.31 0 0 0 0,4.66 l 3.11000003,3.13 a 3.32,3.32 0 0 0 4.67,0 l 15.2199997,-15.18 15.16,15.18 a 3.32,3.32 0 0 0 4.67,0 l 3.11,-3.12 a 3.29,3.29 0 0 0 0,-4.66 z"
     id="path4"
     style="fill:#ffffff"
     inkscape:connector-curvature="0" />
</svg>
